<svg width="26" height="26" viewBox="0 0 26 26" fill="none" xmlns="http://www.w3.org/2000/svg">
<path d="M19.7582 9.72442L19.013 9.809L19.7582 9.72442ZM20.2426 13.9928L20.9879 13.9083L20.2426 13.9928ZM5.75475 13.9928L5.00953 13.9083L5.75475 13.9928ZM6.2392 9.72442L6.98442 9.809L6.2392 9.72442ZM4.81713 16.1128L4.24602 15.6266H4.24602L4.81713 16.1128ZM21.1803 16.1128L20.6092 16.5989V16.5989L21.1803 16.1128ZM15.4578 4.73944H14.7078C14.7078 5.06002 14.9116 5.34515 15.2149 5.449L15.4578 4.73944ZM10.5396 4.73944L10.7825 5.449C11.0858 5.34515 11.2896 5.06002 11.2896 4.73944H10.5396ZM16.951 21.9312C17.0964 21.5433 16.8998 21.111 16.5119 20.9657C16.124 20.8203 15.6918 21.0169 15.5464 21.4048L16.951 21.9312ZM10.451 21.4048C10.3056 21.0169 9.87336 20.8203 9.48549 20.9657C9.09762 21.111 8.90104 21.5433 9.0464 21.9312L10.451 21.4048ZM19.2573 18.7513H6.74008V20.2513H19.2573V18.7513ZM19.013 9.809L19.4974 14.0774L20.9879 13.9083L20.5034 9.63984L19.013 9.809ZM6.49996 14.0774L6.98442 9.809L5.49399 9.63984L5.00953 13.9083L6.49996 14.0774ZM5.38824 16.5989C6.00603 15.8732 6.39504 15.0019 6.49996 14.0774L5.00953 13.9083C4.93995 14.5213 4.68049 15.1162 4.24602 15.6266L5.38824 16.5989ZM19.4974 14.0774C19.6024 15.0019 19.9914 15.8732 20.6092 16.5989L21.7514 15.6266C21.3169 15.1162 21.0574 14.5213 20.9879 13.9083L19.4974 14.0774ZM6.74008 18.7513C6.00886 18.7513 5.48567 18.389 5.24245 17.9604C5.00662 17.5449 5.01077 17.0423 5.38824 16.5989L4.24602 15.6266C3.43504 16.5793 3.4103 17.7711 3.93787 18.7008C4.45804 19.6174 5.49056 20.2513 6.74008 20.2513V18.7513ZM19.2573 20.2513C20.5068 20.2513 21.5394 19.6174 22.0595 18.7008C22.5871 17.7711 22.5624 16.5793 21.7514 15.6266L20.6092 16.5989C20.9866 17.0423 20.9908 17.5449 20.7549 17.9604C20.5117 18.389 19.9885 18.7513 19.2573 18.7513V20.2513ZM16.2078 4.73944V4.62708H14.7078V4.73944H16.2078ZM20.5034 9.63984C20.2041 7.00245 18.247 4.90166 15.7008 4.02987L15.2149 5.449C17.3105 6.16653 18.7899 7.8432 19.013 9.809L20.5034 9.63984ZM11.2896 4.73944V4.62708H9.78959V4.73944H11.2896ZM6.98442 9.809C7.20753 7.8432 8.68688 6.16653 10.7825 5.449L10.2966 4.02987C7.75044 4.90166 5.79332 7.00245 5.49399 9.63984L6.98442 9.809ZM12.9987 2.91797C13.9426 2.91797 14.7078 3.68316 14.7078 4.62708H16.2078C16.2078 2.85474 14.771 1.41797 12.9987 1.41797V2.91797ZM12.9987 1.41797C11.2264 1.41797 9.78959 2.85474 9.78959 4.62708H11.2896C11.2896 3.68316 12.0548 2.91797 12.9987 2.91797V1.41797ZM15.5464 21.4048C15.1873 22.363 14.1987 23.0846 12.9987 23.0846V24.5846C14.7996 24.5846 16.364 23.4976 16.951 21.9312L15.5464 21.4048ZM12.9987 23.0846C11.7987 23.0846 10.8101 22.363 10.451 21.4048L9.0464 21.9312C9.63344 23.4976 11.1978 24.5846 12.9987 24.5846V23.0846Z" fill="#595D6E"/>
</svg>
